<?xml version="1.0" standalone="no"?>
<svg xmlns="http://www.w3.org/2000/svg" xmlns:xlink="http://www.w3.org/1999/xlink" width="3304pt" height="518pt" viewBox="0.00 0.00 3304 518.2">
<g id="graph0" class="graph" transform="translate(-4799.102702489096,595.6447455977242) scale(2.8284271247461894)" data-name="">
<polygon fill="white" stroke="transparent" points="-4,4 -4,-514.2 3300,-514.2 3300,4 -4,4"/>
<g id="clust1" class="cluster" data-name="cluster_fsm">

<polygon fill="lightgrey" stroke="lightgrey" points="8,-160.8 8,-237.6 3199,-237.6 3199,-160.8 8,-160.8"/>
<text text-anchor="middle" x="1603.5" y="-221" font-family="Times,serif" font-size="14.00">FSM</text>
</g>
<g id="clust2" class="cluster" data-name="cluster_alu">

<polygon fill="lightgrey" stroke="lightgrey" points="334,-256.6 334,-333.4 1490,-333.4 1490,-256.6 334,-256.6"/>
<text text-anchor="middle" x="912" y="-316.8" font-family="Times,serif" font-size="14.00">ALU</text>
</g>
<g id="clust3" class="cluster" data-name="cluster_mem">

<polygon fill="lightgrey" stroke="lightgrey" points="1944,-65 1944,-141.8 2510,-141.8 2510,-65 1944,-65"/>
<text text-anchor="middle" x="2227" y="-125.2" font-family="Times,serif" font-size="14.00">Memory</text>
</g>
<g id="clust4" class="cluster" data-name="cluster_ioctr">

<polygon fill="lightgrey" stroke="lightgrey" points="2119,-256.6 2119,-333.4 2996,-333.4 2996,-256.6 2119,-256.6"/>
<text text-anchor="middle" x="2557.5" y="-316.8" font-family="Times,serif" font-size="14.00">IO Controller</text>
</g>
<g id="clust5" class="cluster" data-name="cluster_iobuf">

<polygon fill="lightgrey" stroke="lightgrey" points="1133,-65 1133,-141.8 1535,-141.8 1535,-65 1133,-65"/>
<text text-anchor="middle" x="1334" y="-125.2" font-family="Times,serif" font-size="14.00">IO Buffer</text>
</g>
<g id="clust6" class="cluster" data-name="cluster_pll">

<polygon fill="lightgrey" stroke="lightgrey" points="2818,-352.4 2818,-502.2 3288,-502.2 3288,-352.4 2818,-352.4"/>
<text text-anchor="middle" x="3053" y="-485.6" font-family="Times,serif" font-size="14.00">PLL</text>
</g>
<!-- CLK_fsm -->
<g id="node1" class="node" pointer-events="visible" data-name="CLK_fsm">

<path fill="none" stroke="black" stroke-width="2" d="M3179,-204.8C3179,-204.8 3131,-204.8 3131,-204.8 3125,-204.8 3119,-198.8 3119,-192.8 3119,-192.8 3119,-180.8 3119,-180.8 3119,-174.8 3125,-168.8 3131,-168.8 3131,-168.8 3179,-168.8 3179,-168.8 3185,-168.8 3191,-174.8 3191,-180.8 3191,-180.8 3191,-192.8 3191,-192.8 3191,-198.8 3185,-204.8 3179,-204.8"/>
<text text-anchor="middle" x="3155" y="-182.6" font-family="Times,serif" font-size="14.00">CLK_fsm</text>
</g>
<!-- RST_fsm -->
<g id="node2" class="node" pointer-events="visible" data-name="RST_fsm">

<path fill="none" stroke="black" stroke-width="2" d="M463.68,-204.8C463.68,-204.8 418.32,-204.8 418.32,-204.8 412.32,-204.8 406.32,-198.8 406.32,-192.8 406.32,-192.8 406.32,-180.8 406.32,-180.8 406.32,-174.8 412.32,-168.8 418.32,-168.8 418.32,-168.8 463.68,-168.8 463.68,-168.8 469.68,-168.8 475.68,-174.8 475.68,-180.8 475.68,-180.8 475.68,-192.8 475.68,-192.8 475.68,-198.8 469.68,-204.8 463.68,-204.8"/>
<text text-anchor="middle" x="441" y="-182.6" font-family="Times,serif" font-size="14.00">RST_fsm</text>
</g>
<!-- PC_fsm -->
<g id="node3" class="node" pointer-events="visible" data-name="PC_fsm">

<path fill="none" stroke="black" stroke-width="2" d="M889.62,-204.8C889.62,-204.8 852.38,-204.8 852.38,-204.8 846.38,-204.8 840.38,-198.8 840.38,-192.8 840.38,-192.8 840.38,-180.8 840.38,-180.8 840.38,-174.8 846.38,-168.8 852.38,-168.8 852.38,-168.8 889.62,-168.8 889.62,-168.8 895.62,-168.8 901.62,-174.8 901.62,-180.8 901.62,-180.8 901.62,-192.8 901.62,-192.8 901.62,-198.8 895.62,-204.8 889.62,-204.8"/>
<text text-anchor="middle" x="871" y="-182.6" font-family="Times,serif" font-size="14.00">PC_fsm</text>
</g>
<!-- MCR_fsm -->
<g id="node4" class="node" pointer-events="visible" data-name="MCR_fsm">

<path fill="none" stroke="black" stroke-width="2" d="M1119.62,-204.8C1119.62,-204.8 1068.38,-204.8 1068.38,-204.8 1062.38,-204.8 1056.38,-198.8 1056.38,-192.8 1056.38,-192.8 1056.38,-180.8 1056.38,-180.8 1056.38,-174.8 1062.38,-168.8 1068.38,-168.8 1068.38,-168.8 1119.62,-168.8 1119.62,-168.8 1125.62,-168.8 1131.62,-174.8 1131.62,-180.8 1131.62,-180.8 1131.62,-192.8 1131.62,-192.8 1131.62,-198.8 1125.62,-204.8 1119.62,-204.8"/>
<text text-anchor="middle" x="1094" y="-182.6" font-family="Times,serif" font-size="14.00">MCR_fsm</text>
</g>
<!-- CHR_fsm -->
<g id="node5" class="node" pointer-events="visible" data-name="CHR_fsm">

<path fill="none" stroke="black" stroke-width="2" d="M220.29,-204.8C220.29,-204.8 171.71,-204.8 171.71,-204.8 165.71,-204.8 159.71,-198.8 159.71,-192.8 159.71,-192.8 159.71,-180.8 159.71,-180.8 159.71,-174.8 165.71,-168.8 171.71,-168.8 171.71,-168.8 220.29,-168.8 220.29,-168.8 226.29,-168.8 232.29,-174.8 232.29,-180.8 232.29,-180.8 232.29,-192.8 232.29,-192.8 232.29,-198.8 226.29,-204.8 220.29,-204.8"/>
<text text-anchor="middle" x="196" y="-182.6" font-family="Times,serif" font-size="14.00">CHR_fsm</text>
</g>
<!-- IWR_fsm -->
<g id="node6" class="node" pointer-events="visible" data-name="IWR_fsm">

<path fill="none" stroke="black" stroke-width="2" d="M2415.71,-204.8C2415.71,-204.8 2368.29,-204.8 2368.29,-204.8 2362.29,-204.8 2356.29,-198.8 2356.29,-192.8 2356.29,-192.8 2356.29,-180.8 2356.29,-180.8 2356.29,-174.8 2362.29,-168.8 2368.29,-168.8 2368.29,-168.8 2415.71,-168.8 2415.71,-168.8 2421.71,-168.8 2427.71,-174.8 2427.71,-180.8 2427.71,-180.8 2427.71,-192.8 2427.71,-192.8 2427.71,-198.8 2421.71,-204.8 2415.71,-204.8"/>
<text text-anchor="middle" x="2392" y="-182.6" font-family="Times,serif" font-size="14.00">IWR_fsm</text>
</g>
<!-- ICR_fsm -->
<g id="node7" class="node" pointer-events="visible" data-name="ICR_fsm">

<path fill="none" stroke="black" stroke-width="2" d="M2500.84,-204.8C2500.84,-204.8 2457.16,-204.8 2457.16,-204.8 2451.16,-204.8 2445.16,-198.8 2445.16,-192.8 2445.16,-192.8 2445.16,-180.8 2445.16,-180.8 2445.16,-174.8 2451.16,-168.8 2457.16,-168.8 2457.16,-168.8 2500.84,-168.8 2500.84,-168.8 2506.84,-168.8 2512.84,-174.8 2512.84,-180.8 2512.84,-180.8 2512.84,-192.8 2512.84,-192.8 2512.84,-198.8 2506.84,-204.8 2500.84,-204.8"/>
<text text-anchor="middle" x="2479" y="-182.6" font-family="Times,serif" font-size="14.00">ICR_fsm</text>
</g><g id="edge43" class="edge" data-name="CHR_fsm-&gt;open" data-comment="ICR_fsm">

<path fill="none" stroke="#142b30" stroke-width="2" d="M196,-168.78C196,-168.78 196,-119.26 196,-119.26"/>
<polygon fill="#142b30" stroke="#142b30" stroke-width="2" points="196,-109.26 200.5,-119.26 196.5,-114.26 196.5,-119.26 196,-119.26 195.5,-119.26 195.5,-114.26 191.5,-119.26 196,-109.26 196,-109.26"/>
</g>
<!-- CSR_fsm -->
<g id="node8" class="node" pointer-events="visible" data-name="CSR_fsm">

<path fill="none" stroke="black" stroke-width="2" d="M3089.46,-204.8C3089.46,-204.8 3042.54,-204.8 3042.54,-204.8 3036.54,-204.8 3030.54,-198.8 3030.54,-192.8 3030.54,-192.8 3030.54,-180.8 3030.54,-180.8 3030.54,-174.8 3036.54,-168.8 3042.54,-168.8 3042.54,-168.8 3089.46,-168.8 3089.46,-168.8 3095.46,-168.8 3101.46,-174.8 3101.46,-180.8 3101.46,-180.8 3101.46,-192.8 3101.46,-192.8 3101.46,-198.8 3095.46,-204.8 3089.46,-204.8"/>
<text text-anchor="middle" x="3066" y="-182.6" font-family="Times,serif" font-size="14.00">CSR_fsm</text>
</g>
<!-- ISR_fsm -->
<g id="node9" class="node" pointer-events="visible" data-name="ISR_fsm">

<path fill="none" stroke="black" stroke-width="2" d="M303.79,-204.8C303.79,-204.8 262.21,-204.8 262.21,-204.8 256.21,-204.8 250.21,-198.8 250.21,-192.8 250.21,-192.8 250.21,-180.8 250.21,-180.8 250.21,-174.8 256.21,-168.8 262.21,-168.8 262.21,-168.8 303.79,-168.8 303.79,-168.8 309.79,-168.8 315.79,-174.8 315.79,-180.8 315.79,-180.8 315.79,-192.8 315.79,-192.8 315.79,-198.8 309.79,-204.8 303.79,-204.8"/>
<text text-anchor="middle" x="283" y="-182.6" font-family="Times,serif" font-size="14.00">ISR_fsm</text>
</g>
<!-- ISRin_fsm -->
<g id="node10" class="node" pointer-events="visible" data-name="ISRin_fsm">

<path fill="none" stroke="black" stroke-width="2" d="M2595.18,-204.8C2595.18,-204.8 2542.82,-204.8 2542.82,-204.8 2536.82,-204.8 2530.82,-198.8 2530.82,-192.8 2530.82,-192.8 2530.82,-180.8 2530.82,-180.8 2530.82,-174.8 2536.82,-168.8 2542.82,-168.8 2542.82,-168.8 2595.18,-168.8 2595.18,-168.8 2601.18,-168.8 2607.18,-174.8 2607.18,-180.8 2607.18,-180.8 2607.18,-192.8 2607.18,-192.8 2607.18,-198.8 2601.18,-204.8 2595.18,-204.8"/>
<text text-anchor="middle" x="2569" y="-182.6" font-family="Times,serif" font-size="14.00">ISRin_fsm</text>
</g>
<!-- IOR_fsm -->
<g id="node11" class="node" pointer-events="visible" data-name="IOR_fsm">

<path fill="none" stroke="black" stroke-width="2" d="M1206.11,-204.8C1206.11,-204.8 1161.89,-204.8 1161.89,-204.8 1155.89,-204.8 1149.89,-198.8 1149.89,-192.8 1149.89,-192.8 1149.89,-180.8 1149.89,-180.8 1149.89,-174.8 1155.89,-168.8 1161.89,-168.8 1161.89,-168.8 1206.11,-168.8 1206.11,-168.8 1212.11,-168.8 1218.11,-174.8 1218.11,-180.8 1218.11,-180.8 1218.11,-192.8 1218.11,-192.8 1218.11,-198.8 1212.11,-204.8 1206.11,-204.8"/>
<text text-anchor="middle" x="1184" y="-182.6" font-family="Times,serif" font-size="14.00">IOR_fsm</text>
</g><g id="edge42" class="edge" data-name="ISR_fsm-&gt;open" data-comment="IOR_fsm">

<path fill="none" stroke="#142b30" stroke-width="2" d="M283,-168.63C283,-142.39 283,-97 283,-97 283,-97 233.05,-97 233.05,-97"/>
<polygon fill="#142b30" stroke="#142b30" stroke-width="2" points="223.05,-97 233.05,-92.5 228.05,-96.5 233.05,-96.5 233.05,-97 233.05,-97.5 228.05,-97.5 233.05,-101.5 223.05,-97 223.05,-97"/>
</g>
<!-- datain_iobuf -->
<g id="node58" class="node" pointer-events="visible" data-name="datain_iobuf">

<path fill="none" stroke="black" stroke-width="2" d="M1215.26,-109C1215.26,-109 1152.74,-109 1152.74,-109 1146.74,-109 1140.74,-103 1140.74,-97 1140.74,-97 1140.74,-85 1140.74,-85 1140.74,-79 1146.74,-73 1152.74,-73 1152.74,-73 1215.26,-73 1215.26,-73 1221.26,-73 1227.26,-79 1227.26,-85 1227.26,-85 1227.26,-97 1227.26,-97 1227.26,-103 1221.26,-109 1215.26,-109"/>
<text text-anchor="middle" x="1184" y="-86.8" font-family="Times,serif" font-size="14.00">datain_iobuf</text>
</g><g id="edge44" class="edge" data-name="CSR_fsm-&gt;clk_pll" data-comment="datain_iobuf">

<path fill="none" stroke="#142b30" stroke-width="2" d="M3057.11,-204.83C3057.11,-204.83 3057.11,-350.28 3057.11,-350.28"/>
<polygon fill="#142b30" stroke="#142b30" stroke-width="2" points="3057.11,-360.28 3052.61,-350.28 3056.61,-355.28 3056.61,-350.28 3057.11,-350.28 3057.61,-350.28 3057.61,-355.28 3061.61,-350.28 3057.11,-360.28 3057.11,-360.28"/>
<text text-anchor="middle" x="3091.58" y="-278.4" font-family="Times,serif" font-size="14.00">Clock Speed</text>
</g>
<!-- IOR_fsm&#45;&gt;datain_iobuf -->
<g id="edge27" class="edge" data-name="IOR_fsm-&gt;datain_iobuf">

<path fill="none" stroke="#142b30" stroke-width="2" d="M1184,-168.78C1184,-168.78 1184,-119.26 1184,-119.26"/>
<polygon fill="#142b30" stroke="#142b30" stroke-width="2" points="1184,-109.26 1188.5,-119.26 1184.5,-114.26 1184.5,-119.26 1184,-119.26 1183.5,-119.26 1183.5,-114.26 1179.5,-119.26 1184,-109.26 1184,-109.26"/>
</g>
<!-- IORin_fsm -->
<g id="node12" class="node" pointer-events="visible" data-name="IORin_fsm">

<path fill="none" stroke="black" stroke-width="2" d="M1814.5,-204.8C1814.5,-204.8 1759.5,-204.8 1759.5,-204.8 1753.5,-204.8 1747.5,-198.8 1747.5,-192.8 1747.5,-192.8 1747.5,-180.8 1747.5,-180.8 1747.5,-174.8 1753.5,-168.8 1759.5,-168.8 1759.5,-168.8 1814.5,-168.8 1814.5,-168.8 1820.5,-168.8 1826.5,-174.8 1826.5,-180.8 1826.5,-180.8 1826.5,-192.8 1826.5,-192.8 1826.5,-198.8 1820.5,-204.8 1814.5,-204.8"/>
<text text-anchor="middle" x="1787" y="-182.6" font-family="Times,serif" font-size="14.00">IORin_fsm</text>
</g>
<!-- IDR_fsm -->
<g id="node13" class="node" pointer-events="visible" data-name="IDR_fsm">

<path fill="none" stroke="black" stroke-width="2" d="M1292.11,-204.8C1292.11,-204.8 1247.89,-204.8 1247.89,-204.8 1241.89,-204.8 1235.89,-198.8 1235.89,-192.8 1235.89,-192.8 1235.89,-180.8 1235.89,-180.8 1235.89,-174.8 1241.89,-168.8 1247.89,-168.8 1247.89,-168.8 1292.11,-168.8 1292.11,-168.8 1298.11,-168.8 1304.11,-174.8 1304.11,-180.8 1304.11,-180.8 1304.11,-192.8 1304.11,-192.8 1304.11,-198.8 1298.11,-204.8 1292.11,-204.8"/>
<text text-anchor="middle" x="1270" y="-182.6" font-family="Times,serif" font-size="14.00">IDR_fsm</text>
</g>
<!-- oe_iobuf -->
<g id="node61" class="node" pointer-events="visible" data-name="oe_iobuf">

<path fill="none" stroke="black" stroke-width="2" d="M1298.77,-109C1298.77,-109 1257.23,-109 1257.23,-109 1251.23,-109 1245.23,-103 1245.23,-97 1245.23,-97 1245.23,-85 1245.23,-85 1245.23,-79 1251.23,-73 1257.23,-73 1257.23,-73 1298.77,-73 1298.77,-73 1304.77,-73 1310.77,-79 1310.77,-85 1310.77,-85 1310.77,-97 1310.77,-97 1310.77,-103 1304.77,-109 1298.77,-109"/>
<text text-anchor="middle" x="1278" y="-86.8" font-family="Times,serif" font-size="14.00">oe_iobuf</text>
</g>
<!-- IDR_fsm&#45;&gt;oe_iobuf -->
<g id="edge31" class="edge" data-name="IDR_fsm-&gt;oe_iobuf">

<path fill="none" stroke="#142b30" stroke-width="2" d="M1274.59,-168.78C1274.59,-168.78 1274.59,-119.26 1274.59,-119.26"/>
<polygon fill="#142b30" stroke="#142b30" stroke-width="2" points="1274.59,-109.26 1279.09,-119.26 1275.09,-114.26 1275.09,-119.26 1274.59,-119.26 1274.09,-119.26 1274.09,-114.26 1270.09,-119.26 1274.59,-109.26 1274.59,-109.26"/>
</g>
<!-- ALU_DATA_fsm -->
<g id="node14" class="node" pointer-events="visible" data-name="ALU_DATA_fsm">

<path fill="none" stroke="black" stroke-width="2" d="M1026.16,-204.8C1026.16,-204.8 931.84,-204.8 931.84,-204.8 925.84,-204.8 919.84,-198.8 919.84,-192.8 919.84,-192.8 919.84,-180.8 919.84,-180.8 919.84,-174.8 925.84,-168.8 931.84,-168.8 931.84,-168.8 1026.16,-168.8 1026.16,-168.8 1032.16,-168.8 1038.16,-174.8 1038.16,-180.8 1038.16,-180.8 1038.16,-192.8 1038.16,-192.8 1038.16,-198.8 1032.16,-204.8 1026.16,-204.8"/>
<text text-anchor="middle" x="979" y="-182.6" font-family="Times,serif" font-size="14.00">ALU_DATA_fsm</text>
</g>
<!-- CMP_fsm -->
<g id="node15" class="node" pointer-events="visible" data-name="CMP_fsm">

<path fill="none" stroke="black" stroke-width="2" d="M1523.57,-204.8C1523.57,-204.8 1474.43,-204.8 1474.43,-204.8 1468.43,-204.8 1462.43,-198.8 1462.43,-192.8 1462.43,-192.8 1462.43,-180.8 1462.43,-180.8 1462.43,-174.8 1468.43,-168.8 1474.43,-168.8 1474.43,-168.8 1523.57,-168.8 1523.57,-168.8 1529.57,-168.8 1535.57,-174.8 1535.57,-180.8 1535.57,-180.8 1535.57,-192.8 1535.57,-192.8 1535.57,-198.8 1529.57,-204.8 1523.57,-204.8"/>
<text text-anchor="middle" x="1499" y="-182.6" font-family="Times,serif" font-size="14.00">CMP_fsm</text>
</g>
<!-- A_fsm -->
<g id="node16" class="node" pointer-events="visible" data-name="A_fsm">

<path fill="none" stroke="black" stroke-width="2" d="M376.11,-204.8C376.11,-204.8 345.89,-204.8 345.89,-204.8 339.89,-204.8 333.89,-198.8 333.89,-192.8 333.89,-192.8 333.89,-180.8 333.89,-180.8 333.89,-174.8 339.89,-168.8 345.89,-168.8 345.89,-168.8 376.11,-168.8 376.11,-168.8 382.11,-168.8 388.11,-174.8 388.11,-180.8 388.11,-180.8 388.11,-192.8 388.11,-192.8 388.11,-198.8 382.11,-204.8 376.11,-204.8"/>
<text text-anchor="middle" x="361" y="-182.6" font-family="Times,serif" font-size="14.00">A_fsm</text>
</g>
<!-- B_fsm -->
<g id="node17" class="node" pointer-events="visible" data-name="B_fsm">

<path fill="none" stroke="black" stroke-width="2" d="M58,-204.8C58,-204.8 28,-204.8 28,-204.8 22,-204.8 16,-198.8 16,-192.8 16,-192.8 16,-180.8 16,-180.8 16,-174.8 22,-168.8 28,-168.8 28,-168.8 58,-168.8 58,-168.8 64,-168.8 70,-174.8 70,-180.8 70,-180.8 70,-192.8 70,-192.8 70,-198.8 64,-204.8 58,-204.8"/>
<text text-anchor="middle" x="43" y="-182.6" font-family="Times,serif" font-size="14.00">B_fsm</text>
</g><g id="node71" class="node" pointer-events="visible" data-name="open" data-comment="B_fsm">

<path fill="none" stroke="black" stroke-width="2" d="M211,-109C211,-109 181,-109 181,-109 175,-109 169,-103 169,-97 169,-97 169,-85 169,-85 169,-79 175,-73 181,-73 181,-73 211,-73 211,-73 217,-73 223,-79 223,-85 223,-85 223,-97 223,-97 223,-103 217,-109 211,-109"/>
<text text-anchor="middle" x="196" y="-86.8" font-family="Times,serif" font-size="14.00">open</text>
</g>
<!-- C_fsm -->
<g id="node18" class="node" pointer-events="visible" data-name="C_fsm">

<path fill="none" stroke="black" stroke-width="2" d="M130,-204.8C130,-204.8 100,-204.8 100,-204.8 94,-204.8 88,-198.8 88,-192.8 88,-192.8 88,-180.8 88,-180.8 88,-174.8 94,-168.8 100,-168.8 100,-168.8 130,-168.8 130,-168.8 136,-168.8 142,-174.8 142,-180.8 142,-180.8 142,-192.8 142,-192.8 142,-198.8 136,-204.8 130,-204.8"/>
<text text-anchor="middle" x="115" y="-182.6" font-family="Times,serif" font-size="14.00">C_fsm</text>
</g><g id="edge39" class="edge" data-name="A_fsm-&gt;open" data-comment="C_fsm">

<path fill="none" stroke="#142b30" stroke-width="2" d="M361,-168.6C361,-139.32 361,-85 361,-85 361,-85 233.25,-85 233.25,-85"/>
<polygon fill="#142b30" stroke="#142b30" stroke-width="2" points="223.25,-85 233.25,-80.5 228.25,-84.5 233.25,-84.5 233.25,-85 233.25,-85.5 228.25,-85.5 233.25,-89.5 223.25,-85 223.25,-85"/>
</g>
<!-- D_fsm -->
<g id="node19" class="node" pointer-events="visible" data-name="D_fsm">

<path fill="none" stroke="black" stroke-width="2" d="M738.11,-204.8C738.11,-204.8 707.89,-204.8 707.89,-204.8 701.89,-204.8 695.89,-198.8 695.89,-192.8 695.89,-192.8 695.89,-180.8 695.89,-180.8 695.89,-174.8 701.89,-168.8 707.89,-168.8 707.89,-168.8 738.11,-168.8 738.11,-168.8 744.11,-168.8 750.11,-174.8 750.11,-180.8 750.11,-180.8 750.11,-192.8 750.11,-192.8 750.11,-198.8 744.11,-204.8 738.11,-204.8"/>
<text text-anchor="middle" x="723" y="-182.6" font-family="Times,serif" font-size="14.00">D_fsm</text>
</g>
<!-- E_fsm -->
<g id="node20" class="node" pointer-events="visible" data-name="E_fsm">

<path fill="none" stroke="black" stroke-width="2" d="M536,-204.8C536,-204.8 506,-204.8 506,-204.8 500,-204.8 494,-198.8 494,-192.8 494,-192.8 494,-180.8 494,-180.8 494,-174.8 500,-168.8 506,-168.8 506,-168.8 536,-168.8 536,-168.8 542,-168.8 548,-174.8 548,-180.8 548,-180.8 548,-192.8 548,-192.8 548,-198.8 542,-204.8 536,-204.8"/>
<text text-anchor="middle" x="521" y="-182.6" font-family="Times,serif" font-size="14.00">E_fsm</text>
</g><g id="edge40" class="edge" data-name="B_fsm-&gt;open" data-comment="E_fsm">

<path fill="none" stroke="#142b30" stroke-width="2" d="M43,-168.6C43,-139.32 43,-85 43,-85 43,-85 159,-85 159,-85"/>
<polygon fill="#142b30" stroke="#142b30" stroke-width="2" points="169,-85 159,-89.5 164,-85.5 159,-85.5 159,-85 159,-84.5 164,-84.5 159,-80.5 169,-85 169,-85"/>
</g>
<!-- F_fsm -->
<g id="node21" class="node" pointer-events="visible" data-name="F_fsm">

<path fill="none" stroke="black" stroke-width="2" d="M810,-204.8C810,-204.8 780,-204.8 780,-204.8 774,-204.8 768,-198.8 768,-192.8 768,-192.8 768,-180.8 768,-180.8 768,-174.8 774,-168.8 780,-168.8 780,-168.8 810,-168.8 810,-168.8 816,-168.8 822,-174.8 822,-180.8 822,-180.8 822,-192.8 822,-192.8 822,-198.8 816,-204.8 810,-204.8"/>
<text text-anchor="middle" x="795" y="-182.6" font-family="Times,serif" font-size="14.00">F_fsm</text>
</g>
<!-- INTERRUPT_BLOCK_fsm -->
<g id="node22" class="node" pointer-events="visible" data-name="INTERRUPT_BLOCK_fsm">

<path fill="none" stroke="black" stroke-width="2" d="M1717.95,-204.8C1717.95,-204.8 1566.05,-204.8 1566.05,-204.8 1560.05,-204.8 1554.05,-198.8 1554.05,-192.8 1554.05,-192.8 1554.05,-180.8 1554.05,-180.8 1554.05,-174.8 1560.05,-168.8 1566.05,-168.8 1566.05,-168.8 1717.95,-168.8 1717.95,-168.8 1723.95,-168.8 1729.95,-174.8 1729.95,-180.8 1729.95,-180.8 1729.95,-192.8 1729.95,-192.8 1729.95,-198.8 1723.95,-204.8 1717.95,-204.8"/>
<text text-anchor="middle" x="1642" y="-182.6" font-family="Times,serif" font-size="14.00">INTERRUPT_BLOCK_fsm</text>
</g><g id="edge41" class="edge" data-name="C_fsm-&gt;open" data-comment="INTERRUPT_BLOCK_fsm">

<path fill="none" stroke="#142b30" stroke-width="2" d="M115,-168.63C115,-142.39 115,-97 115,-97 115,-97 158.58,-97 158.58,-97"/>
<polygon fill="#142b30" stroke="#142b30" stroke-width="2" points="168.58,-97 158.58,-101.5 163.58,-97.5 158.58,-97.5 158.58,-97 158.58,-96.5 163.58,-96.5 158.58,-92.5 168.58,-97 168.58,-97"/>
</g>
<!-- interrupt_block_ioctr -->
<g id="node51" class="node" pointer-events="visible" data-name="interrupt_block_ioctr">

<path fill="none" stroke="black" stroke-width="2" d="M2249.47,-300.6C2249.47,-300.6 2138.53,-300.6 2138.53,-300.6 2132.53,-300.6 2126.53,-294.6 2126.53,-288.6 2126.53,-288.6 2126.53,-276.6 2126.53,-276.6 2126.53,-270.6 2132.53,-264.6 2138.53,-264.6 2138.53,-264.6 2249.47,-264.6 2249.47,-264.6 2255.47,-264.6 2261.47,-270.6 2261.47,-276.6 2261.47,-276.6 2261.47,-288.6 2261.47,-288.6 2261.47,-294.6 2255.47,-300.6 2249.47,-300.6"/>
<text text-anchor="middle" x="2194" y="-278.4" font-family="Times,serif" font-size="14.00">interrupt_block_ioctr</text>
</g>
<!-- INTERRUPT_BLOCK_fsm&#45;&gt;interrupt_block_ioctr -->
<g id="edge32" class="edge" data-name="INTERRUPT_BLOCK_fsm-&gt;interrupt_block_ioctr">

<path fill="none" stroke="#142b30" stroke-width="2" d="M1642,-205.16C1642,-232.82 1642,-282 1642,-282 1642,-282 2116.31,-282 2116.31,-282"/>
<polygon fill="#142b30" stroke="#142b30" stroke-width="2" points="2126.31,-282 2116.31,-286.5 2121.31,-282.5 2116.31,-282.5 2116.31,-282 2116.31,-281.5 2121.31,-281.5 2116.31,-277.5 2126.31,-282 2126.31,-282"/>
</g>
<!-- INTERRUPT_fsm -->
<g id="node23" class="node" pointer-events="visible" data-name="INTERRUPT_fsm">

<path fill="none" stroke="black" stroke-width="2" d="M2859.5,-204.8C2859.5,-204.8 2762.5,-204.8 2762.5,-204.8 2756.5,-204.8 2750.5,-198.8 2750.5,-192.8 2750.5,-192.8 2750.5,-180.8 2750.5,-180.8 2750.5,-174.8 2756.5,-168.8 2762.5,-168.8 2762.5,-168.8 2859.5,-168.8 2859.5,-168.8 2865.5,-168.8 2871.5,-174.8 2871.5,-180.8 2871.5,-180.8 2871.5,-192.8 2871.5,-192.8 2871.5,-198.8 2865.5,-204.8 2859.5,-204.8"/>
<text text-anchor="middle" x="2811" y="-182.6" font-family="Times,serif" font-size="14.00">INTERRUPT_fsm</text>
</g>
<!-- CPU_STOP_fsm -->
<g id="node24" class="node" pointer-events="visible" data-name="CPU_STOP_fsm">

<path fill="none" stroke="black" stroke-width="2" d="M666.47,-204.8C666.47,-204.8 577.53,-204.8 577.53,-204.8 571.53,-204.8 565.53,-198.8 565.53,-192.8 565.53,-192.8 565.53,-180.8 565.53,-180.8 565.53,-174.8 571.53,-168.8 577.53,-168.8 577.53,-168.8 666.47,-168.8 666.47,-168.8 672.47,-168.8 678.47,-174.8 678.47,-180.8 678.47,-180.8 678.47,-192.8 678.47,-192.8 678.47,-198.8 672.47,-204.8 666.47,-204.8"/>
<text text-anchor="middle" x="622" y="-182.6" font-family="Times,serif" font-size="14.00">CPU_STOP_fsm</text>
</g>
<!-- OVERFLOW_fsm -->
<g id="node25" class="node" pointer-events="visible" data-name="OVERFLOW_fsm">

<path fill="none" stroke="black" stroke-width="2" d="M1431.77,-204.8C1431.77,-204.8 1334.23,-204.8 1334.23,-204.8 1328.23,-204.8 1322.23,-198.8 1322.23,-192.8 1322.23,-192.8 1322.23,-180.8 1322.23,-180.8 1322.23,-174.8 1328.23,-168.8 1334.23,-168.8 1334.23,-168.8 1431.77,-168.8 1431.77,-168.8 1437.77,-168.8 1443.77,-174.8 1443.77,-180.8 1443.77,-180.8 1443.77,-192.8 1443.77,-192.8 1443.77,-198.8 1437.77,-204.8 1431.77,-204.8"/>
<text text-anchor="middle" x="1383" y="-182.6" font-family="Times,serif" font-size="14.00">OVERFLOW_fsm</text>
</g>
<!-- CPU_STOPin_fsm -->
<g id="node26" class="node" pointer-events="visible" data-name="CPU_STOPin_fsm">

<path fill="none" stroke="black" stroke-width="2" d="M3000.86,-204.8C3000.86,-204.8 2901.14,-204.8 2901.14,-204.8 2895.14,-204.8 2889.14,-198.8 2889.14,-192.8 2889.14,-192.8 2889.14,-180.8 2889.14,-180.8 2889.14,-174.8 2895.14,-168.8 2901.14,-168.8 2901.14,-168.8 3000.86,-168.8 3000.86,-168.8 3006.86,-168.8 3012.86,-174.8 3012.86,-180.8 3012.86,-180.8 3012.86,-192.8 3012.86,-192.8 3012.86,-198.8 3006.86,-204.8 3000.86,-204.8"/>
<text text-anchor="middle" x="2951" y="-182.6" font-family="Times,serif" font-size="14.00">CPU_STOPin_fsm</text>
</g>
<!-- MEM_address_fsm -->
<g id="node27" class="node" pointer-events="visible" data-name="MEM_address_fsm">

<path fill="none" stroke="black" stroke-width="2" d="M1959.44,-204.8C1959.44,-204.8 1856.56,-204.8 1856.56,-204.8 1850.56,-204.8 1844.56,-198.8 1844.56,-192.8 1844.56,-192.8 1844.56,-180.8 1844.56,-180.8 1844.56,-174.8 1850.56,-168.8 1856.56,-168.8 1856.56,-168.8 1959.44,-168.8 1959.44,-168.8 1965.44,-168.8 1971.44,-174.8 1971.44,-180.8 1971.44,-180.8 1971.44,-192.8 1971.44,-192.8 1971.44,-198.8 1965.44,-204.8 1959.44,-204.8"/>
<text text-anchor="middle" x="1908" y="-182.6" font-family="Times,serif" font-size="14.00">MEM_address_fsm</text>
</g>
<!-- address_mem -->
<g id="node43" class="node" pointer-events="visible" data-name="address_mem">

<path fill="none" stroke="black" stroke-width="2" d="M2032.48,-109C2032.48,-109 1963.52,-109 1963.52,-109 1957.52,-109 1951.52,-103 1951.52,-97 1951.52,-97 1951.52,-85 1951.52,-85 1951.52,-79 1957.52,-73 1963.52,-73 1963.52,-73 2032.48,-73 2032.48,-73 2038.48,-73 2044.48,-79 2044.48,-85 2044.48,-85 2044.48,-97 2044.48,-97 2044.48,-103 2038.48,-109 2032.48,-109"/>
<text text-anchor="middle" x="1998" y="-86.8" font-family="Times,serif" font-size="14.00">address_mem</text>
</g>
<!-- MEM_address_fsm&#45;&gt;address_mem -->
<g id="edge22" class="edge" data-name="MEM_address_fsm-&gt;address_mem">

<path fill="none" stroke="#142b30" stroke-width="2" d="M1961.36,-168.78C1961.36,-168.78 1961.36,-119.26 1961.36,-119.26"/>
<polygon fill="#142b30" stroke="#142b30" stroke-width="2" points="1961.36,-109.26 1965.86,-119.26 1961.86,-114.26 1961.86,-119.26 1961.36,-119.26 1960.86,-119.26 1960.86,-114.26 1956.86,-119.26 1961.36,-109.26 1961.36,-109.26"/>
</g>
<!-- MEM_data_fsm -->
<g id="node28" class="node" pointer-events="visible" data-name="MEM_data_fsm">

<path fill="none" stroke="black" stroke-width="2" d="M2720.77,-204.8C2720.77,-204.8 2637.23,-204.8 2637.23,-204.8 2631.23,-204.8 2625.23,-198.8 2625.23,-192.8 2625.23,-192.8 2625.23,-180.8 2625.23,-180.8 2625.23,-174.8 2631.23,-168.8 2637.23,-168.8 2637.23,-168.8 2720.77,-168.8 2720.77,-168.8 2726.77,-168.8 2732.77,-174.8 2732.77,-180.8 2732.77,-180.8 2732.77,-192.8 2732.77,-192.8 2732.77,-198.8 2726.77,-204.8 2720.77,-204.8"/>
<text text-anchor="middle" x="2679" y="-182.6" font-family="Times,serif" font-size="14.00">MEM_data_fsm</text>
</g>
<!-- MEM_rden_fsm -->
<g id="node29" class="node" pointer-events="visible" data-name="MEM_rden_fsm">

<path fill="none" stroke="black" stroke-width="2" d="M2086.82,-204.8C2086.82,-204.8 2001.18,-204.8 2001.18,-204.8 1995.18,-204.8 1989.18,-198.8 1989.18,-192.8 1989.18,-192.8 1989.18,-180.8 1989.18,-180.8 1989.18,-174.8 1995.18,-168.8 2001.18,-168.8 2001.18,-168.8 2086.82,-168.8 2086.82,-168.8 2092.82,-168.8 2098.82,-174.8 2098.82,-180.8 2098.82,-180.8 2098.82,-192.8 2098.82,-192.8 2098.82,-198.8 2092.82,-204.8 2086.82,-204.8"/>
<text text-anchor="middle" x="2044" y="-182.6" font-family="Times,serif" font-size="14.00">MEM_rden_fsm</text>
</g>
<!-- rden_mem -->
<g id="node46" class="node" pointer-events="visible" data-name="rden_mem">

<path fill="none" stroke="black" stroke-width="2" d="M2125.87,-109C2125.87,-109 2074.13,-109 2074.13,-109 2068.13,-109 2062.13,-103 2062.13,-97 2062.13,-97 2062.13,-85 2062.13,-85 2062.13,-79 2068.13,-73 2074.13,-73 2074.13,-73 2125.87,-73 2125.87,-73 2131.87,-73 2137.87,-79 2137.87,-85 2137.87,-85 2137.87,-97 2137.87,-97 2137.87,-103 2131.87,-109 2125.87,-109"/>
<text text-anchor="middle" x="2100" y="-86.8" font-family="Times,serif" font-size="14.00">rden_mem</text>
</g>
<!-- MEM_rden_fsm&#45;&gt;rden_mem -->
<g id="edge24" class="edge" data-name="MEM_rden_fsm-&gt;rden_mem">

<path fill="none" stroke="#142b30" stroke-width="2" d="M2080.36,-168.78C2080.36,-168.78 2080.36,-119.26 2080.36,-119.26"/>
<polygon fill="#142b30" stroke="#142b30" stroke-width="2" points="2080.36,-109.26 2084.86,-119.26 2080.86,-114.26 2080.86,-119.26 2080.36,-119.26 2079.86,-119.26 2079.86,-114.26 2075.86,-119.26 2080.36,-109.26 2080.36,-109.26"/>
</g>
<!-- MEM_wren_fsm -->
<g id="node30" class="node" pointer-events="visible" data-name="MEM_wren_fsm">

<path fill="none" stroke="black" stroke-width="2" d="M2217.44,-204.8C2217.44,-204.8 2128.56,-204.8 2128.56,-204.8 2122.56,-204.8 2116.56,-198.8 2116.56,-192.8 2116.56,-192.8 2116.56,-180.8 2116.56,-180.8 2116.56,-174.8 2122.56,-168.8 2128.56,-168.8 2128.56,-168.8 2217.44,-168.8 2217.44,-168.8 2223.44,-168.8 2229.44,-174.8 2229.44,-180.8 2229.44,-180.8 2229.44,-192.8 2229.44,-192.8 2229.44,-198.8 2223.44,-204.8 2217.44,-204.8"/>
<text text-anchor="middle" x="2173" y="-182.6" font-family="Times,serif" font-size="14.00">MEM_wren_fsm</text>
</g>
<!-- wren_mem -->
<g id="node47" class="node" pointer-events="visible" data-name="wren_mem">

<path fill="none" stroke="black" stroke-width="2" d="M2222.48,-109C2222.48,-109 2167.52,-109 2167.52,-109 2161.52,-109 2155.52,-103 2155.52,-97 2155.52,-97 2155.52,-85 2155.52,-85 2155.52,-79 2161.52,-73 2167.52,-73 2167.52,-73 2222.48,-73 2222.48,-73 2228.48,-73 2234.48,-79 2234.48,-85 2234.48,-85 2234.48,-97 2234.48,-97 2234.48,-103 2228.48,-109 2222.48,-109"/>
<text text-anchor="middle" x="2195" y="-86.8" font-family="Times,serif" font-size="14.00">wren_mem</text>
</g>
<!-- MEM_wren_fsm&#45;&gt;wren_mem -->
<g id="edge25" class="edge" data-name="MEM_wren_fsm-&gt;wren_mem">

<path fill="none" stroke="#142b30" stroke-width="2" d="M2192.36,-168.78C2192.36,-168.78 2192.36,-119.26 2192.36,-119.26"/>
<polygon fill="#142b30" stroke="#142b30" stroke-width="2" points="2192.36,-109.26 2196.86,-119.26 2192.86,-114.26 2192.86,-119.26 2192.36,-119.26 2191.86,-119.26 2191.86,-114.26 2187.86,-119.26 2192.36,-109.26 2192.36,-109.26"/>
</g>
<!-- MEM_q_fsm -->
<g id="node31" class="node" pointer-events="visible" data-name="MEM_q_fsm">

<path fill="none" stroke="black" stroke-width="2" d="M2326.95,-204.8C2326.95,-204.8 2259.05,-204.8 2259.05,-204.8 2253.05,-204.8 2247.05,-198.8 2247.05,-192.8 2247.05,-192.8 2247.05,-180.8 2247.05,-180.8 2247.05,-174.8 2253.05,-168.8 2259.05,-168.8 2259.05,-168.8 2326.95,-168.8 2326.95,-168.8 2332.95,-168.8 2338.95,-174.8 2338.95,-180.8 2338.95,-180.8 2338.95,-192.8 2338.95,-192.8 2338.95,-198.8 2332.95,-204.8 2326.95,-204.8"/>
<text text-anchor="middle" x="2293" y="-182.6" font-family="Times,serif" font-size="14.00">MEM_q_fsm</text>
</g>
<!-- q_mem -->
<g id="node48" class="node" pointer-events="visible" data-name="q_mem">

<path fill="none" stroke="black" stroke-width="2" d="M2297.99,-109C2297.99,-109 2264.01,-109 2264.01,-109 2258.01,-109 2252.01,-103 2252.01,-97 2252.01,-97 2252.01,-85 2252.01,-85 2252.01,-79 2258.01,-73 2264.01,-73 2264.01,-73 2297.99,-73 2297.99,-73 2303.99,-73 2309.99,-79 2309.99,-85 2309.99,-85 2309.99,-97 2309.99,-97 2309.99,-103 2303.99,-109 2297.99,-109"/>
<text text-anchor="middle" x="2281" y="-86.8" font-family="Times,serif" font-size="14.00">q_mem</text>
</g>
<!-- MEM_q_fsm&#45;&gt;q_mem -->
<g id="edge26" class="edge" data-name="MEM_q_fsm-&gt;q_mem">

<path fill="none" stroke="#142b30" stroke-width="2" d="M2281,-168.78C2281,-168.78 2281,-119.26 2281,-119.26"/>
<polygon fill="#142b30" stroke="#142b30" stroke-width="2" points="2281,-109.26 2285.5,-119.26 2281.5,-114.26 2281.5,-119.26 2281,-119.26 2280.5,-119.26 2280.5,-114.26 2276.5,-119.26 2281,-109.26 2281,-109.26"/>
</g>
<!-- MEM_A_alu -->
<g id="node32" class="node" pointer-events="visible" data-name="MEM_A_alu">

<path fill="none" stroke="black" stroke-width="2" d="M728.16,-300.6C728.16,-300.6 661.84,-300.6 661.84,-300.6 655.84,-300.6 649.84,-294.6 649.84,-288.6 649.84,-288.6 649.84,-276.6 649.84,-276.6 649.84,-270.6 655.84,-264.6 661.84,-264.6 661.84,-264.6 728.16,-264.6 728.16,-264.6 734.16,-264.6 740.16,-270.6 740.16,-276.6 740.16,-276.6 740.16,-288.6 740.16,-288.6 740.16,-294.6 734.16,-300.6 728.16,-300.6"/>
<text text-anchor="middle" x="695" y="-278.4" font-family="Times,serif" font-size="14.00">MEM_A_alu</text>
</g>
<!-- MEM_A_alu&#45;&gt;E_fsm -->
<g id="edge12" class="edge" data-name="MEM_A_alu-&gt;E_fsm">

<path fill="none" stroke="#142b30" stroke-width="2" d="M663.95,-264.58C663.95,-251.83 663.95,-237 663.95,-237 663.95,-237 519.94,-237 519.94,-237 519.94,-237 519.94,-214.92 519.94,-214.92"/>
<polygon fill="#142b30" stroke="#142b30" stroke-width="2" points="519.94,-204.92 524.44,-214.92 520.44,-209.92 520.44,-214.92 519.94,-214.92 519.44,-214.92 519.44,-209.92 515.44,-214.92 519.94,-204.92 519.94,-204.92"/>
</g>
<!-- MEM_B_alu -->
<g id="node33" class="node" pointer-events="visible" data-name="MEM_B_alu">

<path fill="none" stroke="black" stroke-width="2" d="M835.89,-300.6C835.89,-300.6 770.11,-300.6 770.11,-300.6 764.11,-300.6 758.11,-294.6 758.11,-288.6 758.11,-288.6 758.11,-276.6 758.11,-276.6 758.11,-270.6 764.11,-264.6 770.11,-264.6 770.11,-264.6 835.89,-264.6 835.89,-264.6 841.89,-264.6 847.89,-270.6 847.89,-276.6 847.89,-276.6 847.89,-288.6 847.89,-288.6 847.89,-294.6 841.89,-300.6 835.89,-300.6"/>
<text text-anchor="middle" x="803" y="-278.4" font-family="Times,serif" font-size="14.00">MEM_B_alu</text>
</g>
<!-- MEM_B_alu&#45;&gt;D_fsm -->
<g id="edge13" class="edge" data-name="MEM_B_alu-&gt;D_fsm">

<path fill="none" stroke="#142b30" stroke-width="2" d="M763.03,-264.43C763.03,-236.45 763.03,-186 763.03,-186 763.03,-186 760.36,-186 760.36,-186"/>
<polygon fill="#142b30" stroke="#142b30" stroke-width="2" points="750.36,-186 760.36,-181.5 755.36,-185.5 760.36,-185.5 760.36,-186 760.36,-186.5 755.36,-186.5 760.36,-190.5 750.36,-186 750.36,-186"/>
</g>
<!-- MEM_MEM_B_alu -->
<g id="node34" class="node" pointer-events="visible" data-name="MEM_MEM_B_alu">

<path fill="none" stroke="black" stroke-width="2" d="M984.34,-300.6C984.34,-300.6 877.66,-300.6 877.66,-300.6 871.66,-300.6 865.66,-294.6 865.66,-288.6 865.66,-288.6 865.66,-276.6 865.66,-276.6 865.66,-270.6 871.66,-264.6 877.66,-264.6 877.66,-264.6 984.34,-264.6 984.34,-264.6 990.34,-264.6 996.34,-270.6 996.34,-276.6 996.34,-276.6 996.34,-288.6 996.34,-288.6 996.34,-294.6 990.34,-300.6 984.34,-300.6"/>
<text text-anchor="middle" x="931" y="-278.4" font-family="Times,serif" font-size="14.00">MEM_MEM_B_alu</text>
</g>
<!-- MEM_MEM_B_alu&#45;&gt;F_fsm -->
<g id="edge14" class="edge" data-name="MEM_MEM_B_alu-&gt;F_fsm">

<path fill="none" stroke="#142b30" stroke-width="2" d="M877.74,-264.38C877.74,-247.83 877.74,-226 877.74,-226 877.74,-226 795,-226 795,-226 795,-226 795,-215.02 795,-215.02"/>
<polygon fill="#142b30" stroke="#142b30" stroke-width="2" points="795,-205.02 799.5,-215.02 795.5,-210.02 795.5,-215.02 795,-215.02 794.5,-215.02 794.5,-210.02 790.5,-215.02 795,-205.02 795,-205.02"/>
</g>
<!-- PC_alu -->
<g id="node35" class="node" pointer-events="visible" data-name="PC_alu">

<path fill="none" stroke="black" stroke-width="2" d="M1059.73,-300.6C1059.73,-300.6 1026.27,-300.6 1026.27,-300.6 1020.27,-300.6 1014.27,-294.6 1014.27,-288.6 1014.27,-288.6 1014.27,-276.6 1014.27,-276.6 1014.27,-270.6 1020.27,-264.6 1026.27,-264.6 1026.27,-264.6 1059.73,-264.6 1059.73,-264.6 1065.73,-264.6 1071.73,-270.6 1071.73,-276.6 1071.73,-276.6 1071.73,-288.6 1071.73,-288.6 1071.73,-294.6 1065.73,-300.6 1059.73,-300.6"/>
<text text-anchor="middle" x="1043" y="-278.4" font-family="Times,serif" font-size="14.00">PC_alu</text>
</g>
<!-- PC_alu&#45;&gt;PC_fsm -->
<g id="edge15" class="edge" data-name="PC_alu-&gt;PC_fsm">

<path fill="none" stroke="#142b30" stroke-width="2" d="M1022.37,-264.45C1022.37,-246.28 1022.37,-221 1022.37,-221 1022.37,-221 889.65,-221 889.65,-221 889.65,-221 889.65,-215.1 889.65,-215.1"/>
<polygon fill="#142b30" stroke="#142b30" stroke-width="2" points="889.65,-205.1 894.15,-215.1 890.15,-210.1 890.15,-215.1 889.65,-215.1 889.15,-215.1 889.15,-210.1 885.15,-215.1 889.65,-205.1 889.65,-205.1"/>
</g>
<!-- DATA_alu -->
<g id="node36" class="node" pointer-events="visible" data-name="DATA_alu">

<path fill="none" stroke="black" stroke-width="2" d="M1156.49,-300.6C1156.49,-300.6 1101.51,-300.6 1101.51,-300.6 1095.51,-300.6 1089.51,-294.6 1089.51,-288.6 1089.51,-288.6 1089.51,-276.6 1089.51,-276.6 1089.51,-270.6 1095.51,-264.6 1101.51,-264.6 1101.51,-264.6 1156.49,-264.6 1156.49,-264.6 1162.49,-264.6 1168.49,-270.6 1168.49,-276.6 1168.49,-276.6 1168.49,-288.6 1168.49,-288.6 1168.49,-294.6 1162.49,-300.6 1156.49,-300.6"/>
<text text-anchor="middle" x="1129" y="-278.4" font-family="Times,serif" font-size="14.00">DATA_alu</text>
</g>
<!-- DATA_alu&#45;&gt;ALU_DATA_fsm -->
<g id="edge16" class="edge" data-name="DATA_alu-&gt;ALU_DATA_fsm">

<path fill="none" stroke="#142b30" stroke-width="2" d="M1103.53,-264.48C1103.53,-244.46 1103.53,-215 1103.53,-215 1103.53,-215 1030.35,-215 1030.35,-215 1030.35,-215 1030.35,-213.98 1030.35,-213.98"/>
<polygon fill="#142b30" stroke="#142b30" stroke-width="2" points="1030.35,-204.82 1034.85,-214.82 1030.85,-209.82 1030.85,-214.82 1030.35,-214.82 1029.85,-214.82 1029.85,-209.82 1025.85,-214.82 1030.35,-204.82 1030.35,-204.82"/>
</g>
<!-- MCR_alu -->
<g id="node37" class="node" pointer-events="visible" data-name="MCR_alu">

<path fill="none" stroke="black" stroke-width="2" d="M1245.73,-300.6C1245.73,-300.6 1198.27,-300.6 1198.27,-300.6 1192.27,-300.6 1186.27,-294.6 1186.27,-288.6 1186.27,-288.6 1186.27,-276.6 1186.27,-276.6 1186.27,-270.6 1192.27,-264.6 1198.27,-264.6 1198.27,-264.6 1245.73,-264.6 1245.73,-264.6 1251.73,-264.6 1257.73,-270.6 1257.73,-276.6 1257.73,-276.6 1257.73,-288.6 1257.73,-288.6 1257.73,-294.6 1251.73,-300.6 1245.73,-300.6"/>
<text text-anchor="middle" x="1222" y="-278.4" font-family="Times,serif" font-size="14.00">MCR_alu</text>
</g>
<!-- MCR_alu&#45;&gt;MCR_fsm -->
<g id="edge17" class="edge" data-name="MCR_alu-&gt;MCR_fsm">

<path fill="none" stroke="#142b30" stroke-width="2" d="M1202.22,-264.28C1202.22,-242.77 1202.22,-210 1202.22,-210 1202.22,-210 1117.54,-210 1117.54,-210 1117.54,-210 1117.54,-209.51 1117.54,-209.51"/>
<polygon fill="#142b30" stroke="#142b30" stroke-width="2" points="1117.54,-205.08 1122.04,-215.08 1118.04,-210.08 1118.04,-215.08 1117.54,-215.08 1117.04,-215.08 1117.04,-210.08 1113.04,-215.08 1117.54,-205.08 1117.54,-205.08"/>
</g>
<!-- OVERFLOW_alu -->
<g id="node38" class="node" pointer-events="visible" data-name="OVERFLOW_alu">

<path fill="none" stroke="black" stroke-width="2" d="M1381.88,-300.6C1381.88,-300.6 1288.12,-300.6 1288.12,-300.6 1282.12,-300.6 1276.12,-294.6 1276.12,-288.6 1276.12,-288.6 1276.12,-276.6 1276.12,-276.6 1276.12,-270.6 1282.12,-264.6 1288.12,-264.6 1288.12,-264.6 1381.88,-264.6 1381.88,-264.6 1387.88,-264.6 1393.88,-270.6 1393.88,-276.6 1393.88,-276.6 1393.88,-288.6 1393.88,-288.6 1393.88,-294.6 1387.88,-300.6 1381.88,-300.6"/>
<text text-anchor="middle" x="1335" y="-278.4" font-family="Times,serif" font-size="14.00">OVERFLOW_alu</text>
</g>
<!-- OVERFLOW_alu&#45;&gt;OVERFLOW_fsm -->
<g id="edge18" class="edge" data-name="OVERFLOW_alu-&gt;OVERFLOW_fsm">

<path fill="none" stroke="#142b30" stroke-width="2" d="M1358.03,-264.58C1358.03,-264.58 1358.03,-215.06 1358.03,-215.06"/>
<polygon fill="#142b30" stroke="#142b30" stroke-width="2" points="1358.03,-205.06 1362.53,-215.06 1358.53,-210.06 1358.53,-215.06 1358.03,-215.06 1357.53,-215.06 1357.53,-210.06 1353.53,-215.06 1358.03,-205.06 1358.03,-205.06"/>
</g>
<!-- CMP_alu -->
<g id="node39" class="node" pointer-events="visible" data-name="CMP_alu">

<path fill="none" stroke="black" stroke-width="2" d="M1469.68,-300.6C1469.68,-300.6 1424.32,-300.6 1424.32,-300.6 1418.32,-300.6 1412.32,-294.6 1412.32,-288.6 1412.32,-288.6 1412.32,-276.6 1412.32,-276.6 1412.32,-270.6 1418.32,-264.6 1424.32,-264.6 1424.32,-264.6 1469.68,-264.6 1469.68,-264.6 1475.68,-264.6 1481.68,-270.6 1481.68,-276.6 1481.68,-276.6 1481.68,-288.6 1481.68,-288.6 1481.68,-294.6 1475.68,-300.6 1469.68,-300.6"/>
<text text-anchor="middle" x="1447" y="-278.4" font-family="Times,serif" font-size="14.00">CMP_alu</text>
</g>
<!-- CMP_alu&#45;&gt;CMP_fsm -->
<g id="edge19" class="edge" data-name="CMP_alu-&gt;CMP_fsm">

<path fill="none" stroke="#142b30" stroke-width="2" d="M1472.03,-264.58C1472.03,-264.58 1472.03,-215.06 1472.03,-215.06"/>
<polygon fill="#142b30" stroke="#142b30" stroke-width="2" points="1472.03,-205.06 1476.53,-215.06 1472.53,-210.06 1472.53,-215.06 1472.03,-215.06 1471.53,-215.06 1471.53,-210.06 1467.53,-215.06 1472.03,-205.06 1472.03,-205.06"/>
</g>
<!-- CPU_STOPin_alu -->
<g id="node40" class="node" pointer-events="visible" data-name="CPU_STOPin_alu">

<path fill="none" stroke="black" stroke-width="2" d="M449.96,-300.6C449.96,-300.6 354.04,-300.6 354.04,-300.6 348.04,-300.6 342.04,-294.6 342.04,-288.6 342.04,-288.6 342.04,-276.6 342.04,-276.6 342.04,-270.6 348.04,-264.6 354.04,-264.6 354.04,-264.6 449.96,-264.6 449.96,-264.6 455.96,-264.6 461.96,-270.6 461.96,-276.6 461.96,-276.6 461.96,-288.6 461.96,-288.6 461.96,-294.6 455.96,-300.6 449.96,-300.6"/>
<text text-anchor="middle" x="402" y="-278.4" font-family="Times,serif" font-size="14.00">CPU_STOPin_alu</text>
</g>
<!-- CLK_alu -->
<g id="node41" class="node" pointer-events="visible" data-name="CLK_alu">

<path fill="none" stroke="black" stroke-width="2" d="M620.1,-300.6C620.1,-300.6 575.9,-300.6 575.9,-300.6 569.9,-300.6 563.9,-294.6 563.9,-288.6 563.9,-288.6 563.9,-276.6 563.9,-276.6 563.9,-270.6 569.9,-264.6 575.9,-264.6 575.9,-264.6 620.1,-264.6 620.1,-264.6 626.1,-264.6 632.1,-270.6 632.1,-276.6 632.1,-276.6 632.1,-288.6 632.1,-288.6 632.1,-294.6 626.1,-300.6 620.1,-300.6"/>
<text text-anchor="middle" x="598" y="-278.4" font-family="Times,serif" font-size="14.00">CLK_alu</text>
</g>
<!-- RST_alu -->
<g id="node42" class="node" pointer-events="visible" data-name="RST_alu">

<path fill="none" stroke="black" stroke-width="2" d="M533.78,-300.6C533.78,-300.6 492.22,-300.6 492.22,-300.6 486.22,-300.6 480.22,-294.6 480.22,-288.6 480.22,-288.6 480.22,-276.6 480.22,-276.6 480.22,-270.6 486.22,-264.6 492.22,-264.6 492.22,-264.6 533.78,-264.6 533.78,-264.6 539.78,-264.6 545.78,-270.6 545.78,-276.6 545.78,-276.6 545.78,-288.6 545.78,-288.6 545.78,-294.6 539.78,-300.6 533.78,-300.6"/>
<text text-anchor="middle" x="513" y="-278.4" font-family="Times,serif" font-size="14.00">RST_alu</text>
</g>
<!-- clock_mem -->
<g id="node44" class="node" pointer-events="visible" data-name="clock_mem">

<path fill="none" stroke="black" stroke-width="2" d="M2489.81,-109C2489.81,-109 2432.19,-109 2432.19,-109 2426.19,-109 2420.19,-103 2420.19,-97 2420.19,-97 2420.19,-85 2420.19,-85 2420.19,-79 2426.19,-73 2432.19,-73 2432.19,-73 2489.81,-73 2489.81,-73 2495.81,-73 2501.81,-79 2501.81,-85 2501.81,-85 2501.81,-97 2501.81,-97 2501.81,-103 2495.81,-109 2489.81,-109"/>
<text text-anchor="middle" x="2461" y="-86.8" font-family="Times,serif" font-size="14.00">clock_mem</text>
</g>
<!-- data_mem -->
<g id="node45" class="node" pointer-events="visible" data-name="data_mem">

<path fill="none" stroke="black" stroke-width="2" d="M2390.31,-109C2390.31,-109 2339.69,-109 2339.69,-109 2333.69,-109 2327.69,-103 2327.69,-97 2327.69,-97 2327.69,-85 2327.69,-85 2327.69,-79 2333.69,-73 2339.69,-73 2339.69,-73 2390.31,-73 2390.31,-73 2396.31,-73 2402.31,-79 2402.31,-85 2402.31,-85 2402.31,-97 2402.31,-97 2402.31,-103 2396.31,-109 2390.31,-109"/>
<text text-anchor="middle" x="2365" y="-86.8" font-family="Times,serif" font-size="14.00">data_mem</text>
</g>
<!-- data_mem&#45;&gt;MEM_data_fsm -->
<g id="edge23" class="edge" data-name="data_mem-&gt;MEM_data_fsm">

<path fill="none" stroke="#142b30" stroke-width="2" d="M2379.27,-109.04C2379.27,-122.29 2379.27,-138 2379.27,-138 2379.27,-138 2679,-138 2679,-138 2679,-138 2679,-158.63 2679,-158.63"/>
<polygon fill="#142b30" stroke="#142b30" stroke-width="2" points="2679,-168.63 2674.5,-158.63 2678.5,-163.63 2678.5,-158.63 2679,-158.63 2679.5,-158.63 2679.5,-163.63 2683.5,-158.63 2679,-168.63 2679,-168.63"/>
</g>
<!-- clk_ioctr -->
<g id="node49" class="node" pointer-events="visible" data-name="clk_ioctr">

<path fill="none" stroke="black" stroke-width="2" d="M2975.76,-300.6C2975.76,-300.6 2934.24,-300.6 2934.24,-300.6 2928.24,-300.6 2922.24,-294.6 2922.24,-288.6 2922.24,-288.6 2922.24,-276.6 2922.24,-276.6 2922.24,-270.6 2928.24,-264.6 2934.24,-264.6 2934.24,-264.6 2975.76,-264.6 2975.76,-264.6 2981.76,-264.6 2987.76,-270.6 2987.76,-276.6 2987.76,-276.6 2987.76,-288.6 2987.76,-288.6 2987.76,-294.6 2981.76,-300.6 2975.76,-300.6"/>
<text text-anchor="middle" x="2955" y="-278.4" font-family="Times,serif" font-size="14.00">clk_ioctr</text>
</g>
<!-- rst_ioctr -->
<g id="node50" class="node" pointer-events="visible" data-name="rst_ioctr">

<path fill="none" stroke="black" stroke-width="2" d="M2892.16,-300.6C2892.16,-300.6 2853.84,-300.6 2853.84,-300.6 2847.84,-300.6 2841.84,-294.6 2841.84,-288.6 2841.84,-288.6 2841.84,-276.6 2841.84,-276.6 2841.84,-270.6 2847.84,-264.6 2853.84,-264.6 2853.84,-264.6 2892.16,-264.6 2892.16,-264.6 2898.16,-264.6 2904.16,-270.6 2904.16,-276.6 2904.16,-276.6 2904.16,-288.6 2904.16,-288.6 2904.16,-294.6 2898.16,-300.6 2892.16,-300.6"/>
<text text-anchor="middle" x="2873" y="-278.4" font-family="Times,serif" font-size="14.00">rst_ioctr</text>
</g>
<!-- ior_ioctr -->
<g id="node52" class="node" pointer-events="visible" data-name="ior_ioctr">

<path fill="none" stroke="black" stroke-width="2" d="M2332.21,-300.6C2332.21,-300.6 2291.79,-300.6 2291.79,-300.6 2285.79,-300.6 2279.79,-294.6 2279.79,-288.6 2279.79,-288.6 2279.79,-276.6 2279.79,-276.6 2279.79,-270.6 2285.79,-264.6 2291.79,-264.6 2291.79,-264.6 2332.21,-264.6 2332.21,-264.6 2338.21,-264.6 2344.21,-270.6 2344.21,-276.6 2344.21,-276.6 2344.21,-288.6 2344.21,-288.6 2344.21,-294.6 2338.21,-300.6 2332.21,-300.6"/>
<text text-anchor="middle" x="2312" y="-278.4" font-family="Times,serif" font-size="14.00">ior_ioctr</text>
</g>
<!-- ior_ioctr&#45;&gt;IORin_fsm -->
<g id="edge33" class="edge" data-name="ior_ioctr-&gt;IORin_fsm">

<path fill="none" stroke="#142b30" stroke-width="2" d="M2309.31,-264.36C2309.31,-258.27 2309.31,-253 2309.31,-253 2309.31,-253 1787,-253 1787,-253 1787,-253 1787,-214.89 1787,-214.89"/>
<polygon fill="#142b30" stroke="#142b30" stroke-width="2" points="1787,-204.89 1791.5,-214.89 1787.5,-209.89 1787.5,-214.89 1787,-214.89 1786.5,-214.89 1786.5,-209.89 1782.5,-214.89 1787,-204.89 1787,-204.89"/>
</g>
<!-- iwr_ioctr -->
<g id="node53" class="node" pointer-events="visible" data-name="iwr_ioctr">

<path fill="none" stroke="black" stroke-width="2" d="M2417.82,-300.6C2417.82,-300.6 2374.18,-300.6 2374.18,-300.6 2368.18,-300.6 2362.18,-294.6 2362.18,-288.6 2362.18,-288.6 2362.18,-276.6 2362.18,-276.6 2362.18,-270.6 2368.18,-264.6 2374.18,-264.6 2374.18,-264.6 2417.82,-264.6 2417.82,-264.6 2423.82,-264.6 2429.82,-270.6 2429.82,-276.6 2429.82,-276.6 2429.82,-288.6 2429.82,-288.6 2429.82,-294.6 2423.82,-300.6 2417.82,-300.6"/>
<text text-anchor="middle" x="2396" y="-278.4" font-family="Times,serif" font-size="14.00">iwr_ioctr</text>
</g>
<!-- iwr_ioctr&#45;&gt;IWR_fsm -->
<g id="edge34" class="edge" data-name="iwr_ioctr-&gt;IWR_fsm">

<path fill="none" stroke="#142b30" stroke-width="2" d="M2394.97,-264.58C2394.97,-264.58 2394.97,-215.06 2394.97,-215.06"/>
<polygon fill="#142b30" stroke="#142b30" stroke-width="2" points="2394.97,-205.06 2399.47,-215.06 2395.47,-210.06 2395.47,-215.06 2394.97,-215.06 2394.47,-215.06 2394.47,-210.06 2390.47,-215.06 2394.97,-205.06 2394.97,-205.06"/>
</g>
<!-- icr_ioctr -->
<g id="node54" class="node" pointer-events="visible" data-name="icr_ioctr">

<path fill="none" stroke="black" stroke-width="2" d="M2498.92,-300.6C2498.92,-300.6 2459.08,-300.6 2459.08,-300.6 2453.08,-300.6 2447.08,-294.6 2447.08,-288.6 2447.08,-288.6 2447.08,-276.6 2447.08,-276.6 2447.08,-270.6 2453.08,-264.6 2459.08,-264.6 2459.08,-264.6 2498.92,-264.6 2498.92,-264.6 2504.92,-264.6 2510.92,-270.6 2510.92,-276.6 2510.92,-276.6 2510.92,-288.6 2510.92,-288.6 2510.92,-294.6 2504.92,-300.6 2498.92,-300.6"/>
<text text-anchor="middle" x="2479" y="-278.4" font-family="Times,serif" font-size="14.00">icr_ioctr</text>
</g>
<!-- icr_ioctr&#45;&gt;ICR_fsm -->
<g id="edge35" class="edge" data-name="icr_ioctr-&gt;ICR_fsm">

<path fill="none" stroke="#142b30" stroke-width="2" d="M2479,-264.58C2479,-264.58 2479,-215.06 2479,-215.06"/>
<polygon fill="#142b30" stroke="#142b30" stroke-width="2" points="2479,-205.06 2483.5,-215.06 2479.5,-210.06 2479.5,-215.06 2479,-215.06 2478.5,-215.06 2478.5,-210.06 2474.5,-215.06 2479,-205.06 2479,-205.06"/>
</g>
<!-- isr_ioctr -->
<g id="node55" class="node" pointer-events="visible" data-name="isr_ioctr">

<path fill="none" stroke="black" stroke-width="2" d="M2579.16,-300.6C2579.16,-300.6 2540.84,-300.6 2540.84,-300.6 2534.84,-300.6 2528.84,-294.6 2528.84,-288.6 2528.84,-288.6 2528.84,-276.6 2528.84,-276.6 2528.84,-270.6 2534.84,-264.6 2540.84,-264.6 2540.84,-264.6 2579.16,-264.6 2579.16,-264.6 2585.16,-264.6 2591.16,-270.6 2591.16,-276.6 2591.16,-276.6 2591.16,-288.6 2591.16,-288.6 2591.16,-294.6 2585.16,-300.6 2579.16,-300.6"/>
<text text-anchor="middle" x="2560" y="-278.4" font-family="Times,serif" font-size="14.00">isr_ioctr</text>
</g>
<!-- isr_ioctr&#45;&gt;ISRin_fsm -->
<g id="edge36" class="edge" data-name="isr_ioctr-&gt;ISRin_fsm">

<path fill="none" stroke="#142b30" stroke-width="2" d="M2560.99,-264.58C2560.99,-264.58 2560.99,-215.06 2560.99,-215.06"/>
<polygon fill="#142b30" stroke="#142b30" stroke-width="2" points="2560.99,-205.06 2565.49,-215.06 2561.49,-210.06 2561.49,-215.06 2560.99,-215.06 2560.49,-215.06 2560.49,-210.06 2556.49,-215.06 2560.99,-205.06 2560.99,-205.06"/>
</g>
<!-- interrupt_ioctr -->
<g id="node56" class="node" pointer-events="visible" data-name="interrupt_ioctr">

<path fill="none" stroke="black" stroke-width="2" d="M2694.36,-300.6C2694.36,-300.6 2621.64,-300.6 2621.64,-300.6 2615.64,-300.6 2609.64,-294.6 2609.64,-288.6 2609.64,-288.6 2609.64,-276.6 2609.64,-276.6 2609.64,-270.6 2615.64,-264.6 2621.64,-264.6 2621.64,-264.6 2694.36,-264.6 2694.36,-264.6 2700.36,-264.6 2706.36,-270.6 2706.36,-276.6 2706.36,-276.6 2706.36,-288.6 2706.36,-288.6 2706.36,-294.6 2700.36,-300.6 2694.36,-300.6"/>
<text text-anchor="middle" x="2658" y="-278.4" font-family="Times,serif" font-size="14.00">interrupt_ioctr</text>
</g>
<!-- interrupt_ioctr&#45;&gt;INTERRUPT_fsm -->
<g id="edge37" class="edge" data-name="interrupt_ioctr-&gt;INTERRUPT_fsm">

<path fill="none" stroke="#142b30" stroke-width="2" d="M2665.77,-264.55C2665.77,-249.67 2665.77,-231 2665.77,-231 2665.77,-231 2768.78,-231 2768.78,-231 2768.78,-231 2768.78,-215.03 2768.78,-215.03"/>
<polygon fill="#142b30" stroke="#142b30" stroke-width="2" points="2768.78,-205.03 2773.28,-215.03 2769.28,-210.03 2769.28,-215.03 2768.78,-215.03 2768.28,-215.03 2768.28,-210.03 2764.28,-215.03 2768.78,-205.03 2768.78,-205.03"/>
</g>
<!-- cpu_stop_ioctr -->
<g id="node57" class="node" pointer-events="visible" data-name="cpu_stop_ioctr">

<path fill="none" stroke="black" stroke-width="2" d="M2811.71,-300.6C2811.71,-300.6 2736.29,-300.6 2736.29,-300.6 2730.29,-300.6 2724.29,-294.6 2724.29,-288.6 2724.29,-288.6 2724.29,-276.6 2724.29,-276.6 2724.29,-270.6 2730.29,-264.6 2736.29,-264.6 2736.29,-264.6 2811.71,-264.6 2811.71,-264.6 2817.71,-264.6 2823.71,-270.6 2823.71,-276.6 2823.71,-276.6 2823.71,-288.6 2823.71,-288.6 2823.71,-294.6 2817.71,-300.6 2811.71,-300.6"/>
<text text-anchor="middle" x="2774" y="-278.4" font-family="Times,serif" font-size="14.00">cpu_stop_ioctr</text>
</g>
<!-- cpu_stop_ioctr&#45;&gt;CPU_STOPin_fsm -->
<g id="edge21" class="edge" data-name="cpu_stop_ioctr-&gt;CPU_STOPin_fsm">

<path fill="none" stroke="#142b30" stroke-width="2" d="M2787.05,-264.2C2787.05,-253.46 2787.05,-242 2787.05,-242 2787.05,-242 2894.32,-242 2894.32,-242 2894.32,-242 2894.32,-214.87 2894.32,-214.87"/>
<polygon fill="#142b30" stroke="#142b30" stroke-width="2" points="2894.32,-204.87 2898.82,-214.87 2894.82,-209.87 2894.82,-214.87 2894.32,-214.87 2893.82,-214.87 2893.82,-209.87 2889.82,-214.87 2894.32,-204.87 2894.32,-204.87"/>
</g>
<!-- cpu_stop_ioctr&#45;&gt;CPU_STOPin_fsm -->

<!-- cpu_stop_ioctr&#45;&gt;CPU_STOPin_alu -->
<g id="edge20" class="edge" data-name="cpu_stop_ioctr-&gt;CPU_STOPin_alu">

<path fill="none" stroke="#142b30" stroke-width="2" d="M2728.64,-264.47C2728.64,-261.3 2728.64,-259 2728.64,-259 2728.64,-259 433.95,-259 433.95,-259 433.95,-259 433.95,-259.55 433.95,-259.55"/>
<polygon fill="#142b30" stroke="#142b30" stroke-width="2" points="433.95,-264.47 429.45,-254.47 433.45,-259.47 433.45,-254.47 433.95,-254.47 434.45,-254.47 434.45,-259.47 438.45,-254.47 433.95,-264.47 433.95,-264.47"/>
</g>
<!-- dataio_iobuf -->
<g id="node59" class="node" pointer-events="visible" data-name="dataio_iobuf">

<path fill="none" stroke="black" stroke-width="2" d="M1403.26,-109C1403.26,-109 1340.74,-109 1340.74,-109 1334.74,-109 1328.74,-103 1328.74,-97 1328.74,-97 1328.74,-85 1328.74,-85 1328.74,-79 1334.74,-73 1340.74,-73 1340.74,-73 1403.26,-73 1403.26,-73 1409.26,-73 1415.26,-79 1415.26,-85 1415.26,-85 1415.26,-97 1415.26,-97 1415.26,-103 1409.26,-109 1403.26,-109"/>
<text text-anchor="middle" x="1372" y="-86.8" font-family="Times,serif" font-size="14.00">dataio_iobuf</text>
</g>
<!-- IOR -->
<g id="node70" class="node" pointer-events="visible" data-name="IOR">

<path fill="none" stroke="black" stroke-width="2" d="M1386,-36C1386,-36 1356,-36 1356,-36 1350,-36 1344,-30 1344,-24 1344,-24 1344,-12 1344,-12 1344,-6 1350,0 1356,0 1356,0 1386,0 1386,0 1392,0 1398,-6 1398,-12 1398,-12 1398,-24 1398,-24 1398,-30 1392,-36 1386,-36"/>
<text text-anchor="middle" x="1371" y="-13.8" font-family="Times,serif" font-size="14.00">IOR</text>
</g>
<!-- dataio_iobuf&#45;&gt;IOR -->
<g id="edge28" class="edge" data-name="dataio_iobuf-&gt;IOR">

<path fill="none" stroke="#142b30" stroke-width="2" d="M1380,-72.96C1380,-72.96 1380,-46.09 1380,-46.09"/>
<polygon fill="#142b30" stroke="#142b30" stroke-width="2" points="1380,-36.09 1384.5,-46.09 1380.5,-41.09 1380.5,-46.09 1380,-46.09 1379.5,-46.09 1379.5,-41.09 1375.5,-46.09 1380,-36.09 1380,-36.09"/>
</g>
<!-- dataout_iobuf -->
<g id="node60" class="node" pointer-events="visible" data-name="dataout_iobuf">

<path fill="none" stroke="black" stroke-width="2" d="M1514.76,-109C1514.76,-109 1445.24,-109 1445.24,-109 1439.24,-109 1433.24,-103 1433.24,-97 1433.24,-97 1433.24,-85 1433.24,-85 1433.24,-79 1439.24,-73 1445.24,-73 1445.24,-73 1514.76,-73 1514.76,-73 1520.76,-73 1526.76,-79 1526.76,-85 1526.76,-85 1526.76,-97 1526.76,-97 1526.76,-103 1520.76,-109 1514.76,-109"/>
<text text-anchor="middle" x="1480" y="-86.8" font-family="Times,serif" font-size="14.00">dataout_iobuf</text>
</g>
<!-- dataout_iobuf&#45;&gt;IORin_fsm -->
<g id="edge30" class="edge" data-name="dataout_iobuf-&gt;IORin_fsm">

<path fill="none" stroke="#142b30" stroke-width="2" d="M1526.96,-91C1612.96,-91 1787,-91 1787,-91 1787,-91 1787,-158.78 1787,-158.78"/>
<polygon fill="#142b30" stroke="#142b30" stroke-width="2" points="1787,-168.78 1782.5,-158.78 1786.5,-163.78 1786.5,-158.78 1787,-158.78 1787.5,-158.78 1787.5,-163.78 1791.5,-158.78 1787,-168.78 1787,-168.78"/>
</g>
<!-- inclk0_pll -->
<g id="node62" class="node" pointer-events="visible" data-name="inclk0_pll">

<path fill="none" stroke="black" stroke-width="2" d="M3268.27,-469.4C3268.27,-469.4 3219.73,-469.4 3219.73,-469.4 3213.73,-469.4 3207.73,-463.4 3207.73,-457.4 3207.73,-457.4 3207.73,-445.4 3207.73,-445.4 3207.73,-439.4 3213.73,-433.4 3219.73,-433.4 3219.73,-433.4 3268.27,-433.4 3268.27,-433.4 3274.27,-433.4 3280.27,-439.4 3280.27,-445.4 3280.27,-445.4 3280.27,-457.4 3280.27,-457.4 3280.27,-463.4 3274.27,-469.4 3268.27,-469.4"/>
<text text-anchor="middle" x="3244" y="-447.2" font-family="Times,serif" font-size="14.00">inclk0_pll</text>
</g>
<!-- c0_pll -->
<g id="node63" class="node" pointer-events="visible" data-name="c0_pll">

<path fill="none" stroke="black" stroke-width="2" d="M3178,-469.4C3178,-469.4 3148,-469.4 3148,-469.4 3142,-469.4 3136,-463.4 3136,-457.4 3136,-457.4 3136,-445.4 3136,-445.4 3136,-439.4 3142,-433.4 3148,-433.4 3148,-433.4 3178,-433.4 3178,-433.4 3184,-433.4 3190,-439.4 3190,-445.4 3190,-445.4 3190,-457.4 3190,-457.4 3190,-463.4 3184,-469.4 3178,-469.4"/>
<text text-anchor="middle" x="3163" y="-447.2" font-family="Times,serif" font-size="14.00">c0_pll</text>
</g><g id="edge38" class="edge" data-name="cpu_stop_ioctr-&gt;CPU_STOPin_fsm" data-comment="c0_pll">

<path fill="none" stroke="#142b30" stroke-width="2" d="M2805.33,-264.49C2805.33,-256.12 2805.33,-248 2805.33,-248 2805.33,-248 2899.33,-248 2899.33,-248 2899.33,-248 2899.33,-214.83 2899.33,-214.83" style=""/>
<polygon fill="#142b30" stroke="#142b30" stroke-width="2" points="2899.33,-204.83 2903.83,-214.83 2899.83,-209.83 2899.83,-214.83 2899.33,-214.83 2898.83,-214.83 2898.83,-209.83 2894.83,-214.83 2899.33,-204.83 2899.33,-204.83"/>
</g>
<!-- clk_pll -->
<g id="node67" class="node" pointer-events="visible" data-name="clk_pll">

<path fill="none" stroke="black" stroke-width="2" d="M3071.38,-396.4C3071.38,-396.4 3040.62,-396.4 3040.62,-396.4 3034.62,-396.4 3028.62,-390.4 3028.62,-384.4 3028.62,-384.4 3028.62,-372.4 3028.62,-372.4 3028.62,-366.4 3034.62,-360.4 3040.62,-360.4 3040.62,-360.4 3071.38,-360.4 3071.38,-360.4 3077.38,-360.4 3083.38,-366.4 3083.38,-372.4 3083.38,-372.4 3083.38,-384.4 3083.38,-384.4 3083.38,-390.4 3077.38,-396.4 3071.38,-396.4"/>
<text text-anchor="middle" x="3056" y="-374.2" font-family="Times,serif" font-size="14.00">clk_pll</text>
</g>
<!-- c0_pll&#45;&gt;clk_pll -->
<g id="edge1" class="edge" data-name="c0_pll-&gt;clk_pll">

<path fill="none" stroke="#142b30" stroke-width="2" d="M3163,-433.34C3163,-413.37 3163,-384 3163,-384 3163,-384 3093.56,-384 3093.56,-384"/>
<polygon fill="#142b30" stroke="#142b30" stroke-width="2" points="3083.56,-384 3093.56,-379.5 3088.56,-383.5 3093.56,-383.5 3093.56,-384 3093.56,-384.5 3088.56,-384.5 3093.56,-388.5 3083.56,-384 3083.56,-384"/>
</g>
<!-- c1_pll -->
<g id="node64" class="node" pointer-events="visible" data-name="c1_pll">

<path fill="none" stroke="black" stroke-width="2" d="M3106,-469.4C3106,-469.4 3076,-469.4 3076,-469.4 3070,-469.4 3064,-463.4 3064,-457.4 3064,-457.4 3064,-445.4 3064,-445.4 3064,-439.4 3070,-433.4 3076,-433.4 3076,-433.4 3106,-433.4 3106,-433.4 3112,-433.4 3118,-439.4 3118,-445.4 3118,-445.4 3118,-457.4 3118,-457.4 3118,-463.4 3112,-469.4 3106,-469.4"/>
<text text-anchor="middle" x="3091" y="-447.2" font-family="Times,serif" font-size="14.00">c1_pll</text>
</g>
<!-- c1_pll&#45;&gt;clk_pll -->
<g id="edge2" class="edge" data-name="c1_pll-&gt;clk_pll">

<path fill="none" stroke="#142b30" stroke-width="2" d="M3073.72,-433.36C3073.72,-433.36 3073.72,-406.49 3073.72,-406.49"/>
<polygon fill="#142b30" stroke="#142b30" stroke-width="2" points="3073.72,-396.49 3078.22,-406.49 3074.22,-401.49 3074.22,-406.49 3073.72,-406.49 3073.22,-406.49 3073.22,-401.49 3069.22,-406.49 3073.72,-396.49 3073.72,-396.49"/>
</g>
<!-- c2_pll -->
<g id="node65" class="node" pointer-events="visible" data-name="c2_pll">

<path fill="none" stroke="black" stroke-width="2" d="M3034,-469.4C3034,-469.4 3004,-469.4 3004,-469.4 2998,-469.4 2992,-463.4 2992,-457.4 2992,-457.4 2992,-445.4 2992,-445.4 2992,-439.4 2998,-433.4 3004,-433.4 3004,-433.4 3034,-433.4 3034,-433.4 3040,-433.4 3046,-439.4 3046,-445.4 3046,-445.4 3046,-457.4 3046,-457.4 3046,-463.4 3040,-469.4 3034,-469.4"/>
<text text-anchor="middle" x="3019" y="-447.2" font-family="Times,serif" font-size="14.00">c2_pll</text>
</g>
<!-- c2_pll&#45;&gt;clk_pll -->
<g id="edge3" class="edge" data-name="c2_pll-&gt;clk_pll">

<path fill="none" stroke="#142b30" stroke-width="2" d="M3037.28,-433.36C3037.28,-433.36 3037.28,-406.49 3037.28,-406.49"/>
<polygon fill="#142b30" stroke="#142b30" stroke-width="2" points="3037.28,-396.49 3041.78,-406.49 3037.78,-401.49 3037.78,-406.49 3037.28,-406.49 3036.78,-406.49 3036.78,-401.49 3032.78,-406.49 3037.28,-396.49 3037.28,-396.49"/>
</g>
<!-- c3_pll -->
<g id="node66" class="node" pointer-events="visible" data-name="c3_pll">

<path fill="none" stroke="black" stroke-width="2" d="M2962,-469.4C2962,-469.4 2932,-469.4 2932,-469.4 2926,-469.4 2920,-463.4 2920,-457.4 2920,-457.4 2920,-445.4 2920,-445.4 2920,-439.4 2926,-433.4 2932,-433.4 2932,-433.4 2962,-433.4 2962,-433.4 2968,-433.4 2974,-439.4 2974,-445.4 2974,-445.4 2974,-457.4 2974,-457.4 2974,-463.4 2968,-469.4 2962,-469.4"/>
<text text-anchor="middle" x="2947" y="-447.2" font-family="Times,serif" font-size="14.00">c3_pll</text>
</g>
<!-- c3_pll&#45;&gt;clk_pll -->
<g id="edge4" class="edge" data-name="c3_pll-&gt;clk_pll">

<path fill="none" stroke="#142b30" stroke-width="2" d="M2948.06,-433.34C2948.06,-413.37 2948.06,-384 2948.06,-384 2948.06,-384 3018.48,-384 3018.48,-384"/>
<polygon fill="#142b30" stroke="#142b30" stroke-width="2" points="3028.48,-384 3018.48,-388.5 3023.48,-384.5 3018.48,-384.5 3018.48,-384 3018.48,-383.5 3023.48,-383.5 3018.48,-379.5 3028.48,-384 3028.48,-384"/>
</g>
<!-- clk_pll&#45;&gt;CLK_fsm -->
<g id="edge7" class="edge" data-name="clk_pll-&gt;CLK_fsm">

<path fill="none" stroke="#142b30" stroke-width="2" d="M3083.44,-372C3103.6,-372 3127.5,-372 3127.5,-372 3127.5,-372 3127.5,-214.89 3127.5,-214.89"/>
<polygon fill="#142b30" stroke="#142b30" stroke-width="2" points="3127.5,-204.89 3132,-214.89 3128,-209.89 3128,-214.89 3127.5,-214.89 3127,-214.89 3127,-209.89 3123,-214.9 3127.5,-204.89 3127.5,-204.89"/>
</g>
<!-- clk_pll&#45;&gt;CLK_alu -->
<g id="edge5" class="edge" data-name="clk_pll-&gt;CLK_alu">

<path fill="none" stroke="#142b30" stroke-width="2" d="M3028.4,-378C2758.35,-378 598,-378 598,-378 598,-378 598,-310.99 598,-310.99"/>
<polygon fill="#142b30" stroke="#142b30" stroke-width="2" points="598,-300.99 602.5,-310.99 598.5,-305.99 598.5,-310.99 598,-310.99 597.5,-310.99 597.5,-305.99 593.5,-310.99 598,-300.99 598,-300.99"/>
</g>
<!-- clk_pll&#45;&gt;clock_mem -->
<g id="edge6" class="edge" data-name="clk_pll-&gt;clock_mem">

<path fill="none" stroke="#142b30" stroke-width="2" d="M3028.22,-372C2907.87,-372 2437.49,-372 2437.49,-372 2437.49,-372 2437.49,-119.01 2437.49,-119.01"/>
<polygon fill="#142b30" stroke="#142b30" stroke-width="2" points="2437.49,-109.01 2441.99,-119.01 2437.99,-114.01 2437.99,-119.01 2437.49,-119.01 2436.99,-119.01 2436.99,-114.01 2432.99,-119.01 2437.49,-109.01 2437.49,-109.01"/>
</g>
<!-- locked_pll -->
<g id="node68" class="node" pointer-events="visible" data-name="locked_pll">

<path fill="none" stroke="black" stroke-width="2" d="M2889.6,-469.4C2889.6,-469.4 2838.4,-469.4 2838.4,-469.4 2832.4,-469.4 2826.4,-463.4 2826.4,-457.4 2826.4,-457.4 2826.4,-445.4 2826.4,-445.4 2826.4,-439.4 2832.4,-433.4 2838.4,-433.4 2838.4,-433.4 2889.6,-433.4 2889.6,-433.4 2895.6,-433.4 2901.6,-439.4 2901.6,-445.4 2901.6,-445.4 2901.6,-457.4 2901.6,-457.4 2901.6,-463.4 2895.6,-469.4 2889.6,-469.4"/>
<text text-anchor="middle" x="2864" y="-447.2" font-family="Times,serif" font-size="14.00">locked_pll</text>
</g><g id="edge8" class="edge" data-name="clk_pll-&gt;clk_ioctr" data-comment="locked_pll">

<path fill="none" stroke="#142b30" stroke-width="2" d="M3028.48,-366C3007.05,-366 2980.94,-366 2980.94,-366 2980.94,-366 2980.94,-310.7 2980.94,-310.7"/>
<polygon fill="#142b30" stroke="#142b30" stroke-width="2" points="2980.94,-300.7 2985.44,-310.7 2981.44,-305.7 2981.44,-310.7 2980.94,-310.7 2980.44,-310.7 2980.44,-305.7 2976.44,-310.7 2980.94,-300.7 2980.94,-300.7"/>
</g>
<!-- rst -->
<g id="node69" class="node" pointer-events="visible" data-name="rst">

<path fill="none" stroke="black" stroke-width="2" d="M528,-396.4C528,-396.4 498,-396.4 498,-396.4 492,-396.4 486,-390.4 486,-384.4 486,-384.4 486,-372.4 486,-372.4 486,-366.4 492,-360.4 498,-360.4 498,-360.4 528,-360.4 528,-360.4 534,-360.4 540,-366.4 540,-372.4 540,-372.4 540,-384.4 540,-384.4 540,-390.4 534,-396.4 528,-396.4"/>
<text text-anchor="middle" x="513" y="-374.2" font-family="Times,serif" font-size="14.00">rst</text>
</g>
<!-- rst&#45;&gt;RST_fsm -->
<g id="edge10" class="edge" data-name="rst-&gt;RST_fsm">

<path fill="none" stroke="#142b30" stroke-width="2" d="M485.75,-378C476.65,-378 468.78,-378 468.78,-378 468.78,-378 468.78,-215.13 468.78,-215.13"/>
<polygon fill="#142b30" stroke="#142b30" stroke-width="2" points="468.78,-205.13 473.28,-215.13 469.28,-210.13 469.28,-215.13 468.78,-215.13 468.28,-215.13 468.28,-210.13 464.28,-215.13 468.78,-205.13 468.78,-205.13"/>
</g>
<!-- rst&#45;&gt;RST_alu -->
<g id="edge9" class="edge" data-name="rst-&gt;RST_alu">

<path fill="none" stroke="#142b30" stroke-width="2" d="M513,-360.38C513,-360.38 513,-310.86 513,-310.86"/>
<polygon fill="#142b30" stroke="#142b30" stroke-width="2" points="513,-300.86 517.5,-310.86 513.5,-305.86 513.5,-310.86 513,-310.86 512.5,-310.86 512.5,-305.86 508.5,-310.86 513,-300.86 513,-300.86"/>
</g>
<!-- rst&#45;&gt;rst_ioctr -->
<g id="edge11" class="edge" data-name="rst-&gt;rst_ioctr">

<path fill="none" stroke="#142b30" stroke-width="2" d="M540.3,-390C802.93,-390 2871.61,-390 2871.61,-390 2871.61,-390 2871.61,-310.82 2871.61,-310.82"/>
<polygon fill="#142b30" stroke="#142b30" stroke-width="2" points="2871.61,-300.82 2876.11,-310.82 2872.11,-305.82 2872.11,-310.82 2871.61,-310.82 2871.11,-310.82 2871.11,-305.82 2867.11,-310.82 2871.61,-300.82 2871.61,-300.82"/>
</g>
<!-- IOR&#45;&gt;dataio_iobuf -->
<!-- IOR&#45;&gt;dataio_iobuf -->
<!-- IOR&#45;&gt;dataio_iobuf -->
<!-- IOR&#45;&gt;dataio_iobuf -->
<!-- IOR&#45;&gt;dataio_iobuf -->
<!-- IOR&#45;&gt;dataio_iobuf -->
<g id="edge29" class="edge" data-name="IOR-&gt;dataio_iobuf">

<path fill="none" stroke="#142b30" stroke-width="2" d="M1362,-36.04C1362,-36.04 1362,-62.91 1362,-62.91"/>
<polygon fill="#142b30" stroke="#142b30" stroke-width="2" points="1362,-72.91 1357.5,-62.91 1361.5,-67.91 1361.5,-62.91 1362,-62.91 1362.5,-62.91 1362.5,-67.91 1366.5,-62.91 1362,-72.91 1362,-72.91"/>
</g>

<!-- A -->





<!-- CHR_ -->

<!-- CSR -->

</g>
</svg>